solid OpenSCAD_Model
  facet normal -1 0 0
    outer loop
      vertex 5.09999942779541 0 0
      vertex 5.09999942779541 -2.6999998092651367 0
      vertex 5.09999942779541 0 3
    endloop
  endfacet
  facet normal -1 0 0
    outer loop
      vertex 5.09999942779541 1.5999994277954102 3
      vertex 5.09999942779541 4.299999237060547 0
      vertex 5.09999942779541 1.5999994277954102 0
    endloop
  endfacet
  facet normal -1 0 0
    outer loop
      vertex 5.09999942779541 4.299999237060547 0
      vertex 5.09999942779541 1.5999994277954102 3
      vertex 5.09999942779541 4.299999237060547 4
    endloop
  endfacet
  facet normal -1 0 0
    outer loop
      vertex 5.09999942779541 0 3
      vertex 5.09999942779541 4.299999237060547 4
      vertex 5.09999942779541 1.5999994277954102 3
    endloop
  endfacet
  facet normal -1 0 0
    outer loop
      vertex 5.09999942779541 0 3
      vertex 5.09999942779541 -2.6999998092651367 4
      vertex 5.09999942779541 4.299999237060547 4
    endloop
  endfacet
  facet normal -1 0 0
    outer loop
      vertex 5.09999942779541 -2.6999998092651367 4
      vertex 5.09999942779541 0 3
      vertex 5.09999942779541 -2.6999998092651367 0
    endloop
  endfacet
  facet normal 0 0 1
    outer loop
      vertex 0 1.5999994277954102 3
      vertex 5.09999942779541 0 3
      vertex 5.09999942779541 1.5999994277954102 3
    endloop
  endfacet
  facet normal 0 0 1
    outer loop
      vertex 5.09999942779541 0 3
      vertex 0 1.5999994277954102 3
      vertex 0 0 3
    endloop
  endfacet
  facet normal 0 0 -1
    outer loop
      vertex 0 0 0
      vertex 5.09999942779541 1.5999994277954102 0
      vertex 5.09999942779541 0 0
    endloop
  endfacet
  facet normal 0 0 -1
    outer loop
      vertex 5.09999942779541 1.5999994277954102 0
      vertex 0 0 0
      vertex 0 1.5999994277954102 0
    endloop
  endfacet
  facet normal 0 0 -1
    outer loop
      vertex 5.09999942779541 0 0
      vertex 6.59999942779541 -2.6999998092651367 0
      vertex 5.09999942779541 -2.6999998092651367 0
    endloop
  endfacet
  facet normal 0 0 -1
    outer loop
      vertex 6.59999942779541 -2.6999998092651367 0
      vertex 5.09999942779541 0 0
      vertex 6.59999942779541 4.299999237060547 0
    endloop
  endfacet
  facet normal 0 0 -1
    outer loop
      vertex 5.09999942779541 1.5999994277954102 0
      vertex 6.59999942779541 4.299999237060547 0
      vertex 5.09999942779541 0 0
    endloop
  endfacet
  facet normal 0 0 -1
    outer loop
      vertex 6.59999942779541 4.299999237060547 0
      vertex 5.09999942779541 1.5999994277954102 0
      vertex 5.09999942779541 4.299999237060547 0
    endloop
  endfacet
  facet normal -1 0 0
    outer loop
      vertex 0 0 0
      vertex 0 1.5999994277954102 3
      vertex 0 1.5999994277954102 0
    endloop
  endfacet
  facet normal -1 0 0
    outer loop
      vertex 0 1.5999994277954102 3
      vertex 0 0 0
      vertex 0 0 3
    endloop
  endfacet
  facet normal 0 1 0
    outer loop
      vertex 5.09999942779541 1.5999994277954102 0
      vertex 0 1.5999994277954102 3
      vertex 5.09999942779541 1.5999994277954102 3
    endloop
  endfacet
  facet normal 0 1 0
    outer loop
      vertex 0 1.5999994277954102 3
      vertex 5.09999942779541 1.5999994277954102 0
      vertex 0 1.5999994277954102 0
    endloop
  endfacet
  facet normal 0 -1 0
    outer loop
      vertex 0 0 0
      vertex 5.09999942779541 0 3
      vertex 0 0 3
    endloop
  endfacet
  facet normal 0 -1 0
    outer loop
      vertex 5.09999942779541 0 3
      vertex 0 0 0
      vertex 5.09999942779541 0 0
    endloop
  endfacet
  facet normal 1 0 0
    outer loop
      vertex 6.59999942779541 -2.6999998092651367 4
      vertex 6.59999942779541 4.299999237060547 0
      vertex 6.59999942779541 4.299999237060547 4
    endloop
  endfacet
  facet normal 1 0 0
    outer loop
      vertex 6.59999942779541 4.299999237060547 0
      vertex 6.59999942779541 -2.6999998092651367 4
      vertex 6.59999942779541 -2.6999998092651367 0
    endloop
  endfacet
  facet normal 0 0 1
    outer loop
      vertex 5.09999942779541 4.299999237060547 4
      vertex 6.59999942779541 -2.6999998092651367 4
      vertex 6.59999942779541 4.299999237060547 4
    endloop
  endfacet
  facet normal 0 0 1
    outer loop
      vertex 6.59999942779541 -2.6999998092651367 4
      vertex 5.09999942779541 4.299999237060547 4
      vertex 5.09999942779541 -2.6999998092651367 4
    endloop
  endfacet
  facet normal 0 1 0
    outer loop
      vertex 6.59999942779541 4.299999237060547 0
      vertex 5.09999942779541 4.299999237060547 4
      vertex 6.59999942779541 4.299999237060547 4
    endloop
  endfacet
  facet normal 0 1 0
    outer loop
      vertex 5.09999942779541 4.299999237060547 4
      vertex 6.59999942779541 4.299999237060547 0
      vertex 5.09999942779541 4.299999237060547 0
    endloop
  endfacet
  facet normal 0 -1 0
    outer loop
      vertex 5.09999942779541 -2.6999998092651367 0
      vertex 6.59999942779541 -2.6999998092651367 4
      vertex 5.09999942779541 -2.6999998092651367 4
    endloop
  endfacet
  facet normal 0 -1 0
    outer loop
      vertex 6.59999942779541 -2.6999998092651367 4
      vertex 5.09999942779541 -2.6999998092651367 0
      vertex 6.59999942779541 -2.6999998092651367 0
    endloop
  endfacet
endsolid OpenSCAD_Model
